<?xml version="1.0" encoding="UTF-8"?>
<!-- Generator: visioncortex VTracer 0.6.3 -->
<svg version="1.1" xmlns="http://www.w3.org/2000/svg" width="1280" height="1250">
<path d="M0 0 C422.4 0 844.8 0 1280 0 C1280 412.5 1280 825 1280 1250 C857.6 1250 435.2 1250 0 1250 C0 837.5 0 425 0 0 Z "  transform="translate(0,0)" fill="transparent"/>
<path d="M0 0 C1.51 0.78 3.02 1.55 4.54 2.31 C26.74 13.55 46.49 27.77 65.21 44.13 C66.06 44.87 66.91 45.61 67.78 46.36 C77.59 55.02 86.92 64.15 95.05 74.41 C97.31 77.25 99.66 80 102.02 82.76 C147.06 136.86 170.52 207.06 170.4 277.07 C170.4 277.79 170.4 278.5 170.4 279.24 C170.31 308.26 167.1 337.4 158.21 365.13 C157.92 366.05 157.64 366.97 157.34 367.91 C143.83 410.72 123.05 449.45 92.54 482.59 C90.59 484.72 88.71 486.88 86.84 489.07 C55.79 524.74 11.17 553.85 -33.72 568.45 C-35.8 569.14 -37.87 569.87 -39.93 570.62 C-71.45 581.86 -105.07 586.37 -138.41 586.32 C-139.16 586.32 -139.9 586.32 -140.66 586.32 C-152.81 586.29 -164.75 585.78 -176.79 584.13 C-177.8 584 -178.82 583.87 -179.86 583.73 C-194.43 581.77 -208.65 579.16 -222.79 575.13 C-223.47 574.94 -224.14 574.75 -224.84 574.55 C-229.53 573.2 -234.17 571.7 -238.79 570.13 C-239.62 569.85 -240.45 569.57 -241.31 569.28 C-285.31 554.2 -326.43 528.68 -358.79 495.13 C-361.27 492.64 -363.76 490.16 -366.3 487.73 C-373.54 480.71 -379.74 473.19 -385.79 465.13 C-386.25 464.53 -386.71 463.93 -387.18 463.31 C-394.31 453.93 -400.74 444.23 -406.79 434.13 C-407.14 433.55 -407.49 432.97 -407.85 432.37 C-425.52 403.06 -436.73 370.48 -443.79 337.13 C-443.95 336.41 -444.1 335.68 -444.27 334.93 C-448.29 316.15 -449.17 297.16 -449.1 278.01 C-449.1 277.03 -449.1 276.06 -449.1 275.05 C-449.05 259.24 -448.35 243.76 -445.79 228.13 C-445.58 226.83 -445.58 226.83 -445.37 225.49 C-438.53 184.17 -422.33 142.81 -398.79 108.13 C-397.99 106.92 -397.18 105.7 -396.38 104.49 C-387.84 91.7 -378.31 79.76 -367.9 68.44 C-366.42 66.82 -364.96 65.19 -363.52 63.55 C-359.56 59.05 -355.56 54.87 -350.97 51.01 C-349.39 49.65 -347.84 48.23 -346.32 46.79 C-332.25 33.39 -316.31 22.39 -299.73 12.32 C-298.13 11.34 -296.53 10.34 -294.94 9.34 C-208.87 -44.26 -91.81 -46.92 0 0 Z " fill="#181a1b" transform="translate(528.7890625,355.86572265625)"/>
<path d="M0 0 C0.95 0.28 1.9 0.57 2.88 0.86 C19.28 5.82 34.63 12.45 50 20 C50.81 20.39 51.62 20.79 52.46 21.19 C69.87 29.7 85.94 40.86 101 53 C101.93 53.73 102.85 54.47 103.81 55.23 C119.89 68.14 135.41 82.63 148 99 C149 100.28 150.01 101.55 151.01 102.82 C189.36 151.83 211.94 208.06 218 270 C218.11 271.07 218.11 271.07 218.22 272.16 C221.72 308.26 217.19 345.07 208 380 C207.82 380.71 207.64 381.42 207.45 382.15 C198.07 418.53 179.93 453.39 157 483 C156.32 483.89 155.63 484.77 154.93 485.68 C152.98 488.15 151 490.58 149 493 C148.29 493.9 147.57 494.8 146.84 495.73 C140.65 503.32 133.9 510.31 127 517.25 C126.09 518.17 125.17 519.1 124.23 520.05 C118.13 526.12 111.75 531.66 105 537 C103.8 537.98 102.59 538.95 101.39 539.93 C93.24 546.47 84.79 552.37 76 558 C74.93 558.69 73.86 559.38 72.76 560.09 C64.09 565.55 55.16 570.42 46 575 C45.28 575.36 44.56 575.72 43.82 576.1 C7.41 594.14 -35.2 605.04 -75.82 605.2 C-76.93 605.21 -78.03 605.21 -79.17 605.22 C-81.5 605.23 -83.83 605.24 -86.16 605.24 C-89.63 605.25 -93.11 605.28 -96.59 605.31 C-173.24 605.67 -243.94 573.84 -301 524 C-301.88 523.24 -302.76 522.47 -303.66 521.68 C-305.44 520.13 -307.22 518.57 -309 517 C-308.08 512.55 -305.69 509.28 -303.19 505.56 C-277.65 466.76 -260.02 423.96 -251.12 378.38 C-250.98 377.63 -250.83 376.89 -250.68 376.12 C-238.42 312.85 -245.1 247.73 -269 188 C-269.38 187.04 -269.77 186.08 -270.17 185.08 C-282.22 155.27 -298.61 126.23 -319.15 101.4 C-319.8 100.61 -320.45 99.82 -321.12 99 C-321.71 98.32 -322.29 97.64 -322.88 96.94 C-324 95 -324 95 -323.75 93.09 C-322.89 90.69 -321.86 89.42 -320.11 87.57 C-319.51 86.92 -318.91 86.28 -318.29 85.62 C-317.64 84.94 -316.99 84.26 -316.31 83.56 C-315.64 82.85 -314.96 82.15 -314.27 81.42 C-303.59 70.3 -292.3 60.28 -280 51 C-279.41 50.55 -278.82 50.1 -278.22 49.63 C-268.24 42 -257.82 35.36 -247 29 C-246.34 28.61 -245.68 28.21 -245 27.81 C-209.35 6.58 -169 -5.71 -128 -11 C-127.11 -11.12 -126.21 -11.23 -125.3 -11.35 C-83.51 -16.6 -40.2 -12.16 0 0 Z " fill="#181a1b" transform="translate(980,319)"/>
<path d="M0 0 C5.34 2.96 8.15 8.25 10.81 13.56 C10.96 16.54 11.05 19.49 11.09 22.47 C11.11 23.36 11.13 24.24 11.15 25.15 C11.23 28.93 11.3 32.72 11.36 36.51 C11.42 39.27 11.47 42.03 11.53 44.79 C11.55 46.08 11.55 46.08 11.57 47.4 C11.27 51.3 11.27 51.3 12.81 54.56 C14.31 54.87 15.83 55.13 17.34 55.36 C51.69 60.84 77.62 72.1 99.1 100.59 C109.99 115.69 119.64 133.39 117.81 152.56 C115.22 163.16 107.95 170.94 98.81 176.56 C91.19 180.48 80.27 179.89 72.25 177.5 C61.98 172.67 55.89 166.26 51.88 155.7 C50.85 152.67 49.89 149.62 48.94 146.56 C44.28 132.35 35.41 120.97 22.78 113.04 C18.97 111.14 14.85 109.91 10.81 108.56 C11.14 144.2 11.47 179.84 11.81 216.56 C19.75 219.78 19.75 219.78 27.77 222.46 C28.81 222.77 29.85 223.08 30.92 223.4 C32 223.72 33.08 224.04 34.19 224.38 C68.29 234.73 68.29 234.73 78.81 241.56 C79.91 242.27 81 242.98 82.12 243.7 C94.31 251.86 105.18 261.95 112.81 274.56 C113.17 275.14 113.52 275.72 113.89 276.32 C130.09 303.05 134.48 333.73 127 364.22 C118.89 394.53 100.22 418.66 73.25 434.72 C54.24 445.59 33.36 450.57 11.81 453.56 C11.81 454.79 11.8 456.02 11.8 457.29 C11.78 461.88 11.72 466.48 11.66 471.07 C11.64 473.05 11.62 475.03 11.62 477.01 C11.61 479.88 11.57 482.73 11.52 485.59 C11.52 486.47 11.53 487.35 11.53 488.25 C11.39 494.48 9.85 498.77 5.81 503.56 C0.7 508.07 -3.96 509.99 -10.71 509.91 C-16.4 509.12 -21.29 505.87 -25.12 501.69 C-29.14 495.6 -29.47 489.61 -29.38 482.57 C-29.38 481.73 -29.38 480.9 -29.37 480.04 C-29.36 477.4 -29.34 474.76 -29.31 472.12 C-29.3 470.33 -29.29 468.53 -29.29 466.73 C-29.26 462.34 -29.23 457.95 -29.19 453.56 C-29.89 453.44 -30.58 453.32 -31.3 453.2 C-64.19 447.46 -93.13 436.39 -117.19 412.56 C-118.18 411.66 -118.18 411.66 -119.2 410.74 C-136.46 394.8 -146.49 370.56 -148.45 347.53 C-148.92 335.23 -144.38 326.46 -136.34 317.51 C-133.92 315.32 -131.67 314.18 -128.69 312.88 C-127.28 312.25 -127.28 312.25 -125.84 311.61 C-117.59 308.35 -107.15 308.1 -98.75 311.06 C-83.22 318.51 -79.43 336.43 -74.06 351.36 C-73.73 352.26 -73.41 353.16 -73.08 354.09 C-72.33 356.16 -71.59 358.22 -70.85 360.29 C-68.42 366.62 -65.32 371.39 -60.86 376.5 C-59.19 378.56 -59.19 378.56 -58.19 381.56 C-56.87 382.27 -55.53 382.92 -54.19 383.56 C-51.4 385.69 -48.67 387.88 -45.94 390.08 C-40.72 393.53 -34.87 395.94 -29.19 398.56 C-29.19 357.97 -29.19 317.38 -29.19 275.56 C-32.77 274.13 -36.25 272.85 -39.91 271.68 C-72.78 261.02 -108.73 247.85 -126.19 215.56 C-126.63 214.81 -127.08 214.06 -127.54 213.29 C-135.43 199.12 -137.39 182.69 -137.43 166.76 C-137.44 164.6 -137.47 162.43 -137.5 160.27 C-137.6 147.76 -135.82 135.82 -131.5 124 C-131.24 123.3 -130.99 122.59 -130.73 121.87 C-120.78 95.56 -100.48 78.03 -75.35 66.5 C-61.21 60.35 -44.69 55.33 -29.19 55.56 C-29.2 54.42 -29.22 53.28 -29.24 52.11 C-29.29 47.85 -29.32 43.6 -29.35 39.34 C-29.37 37.5 -29.39 35.67 -29.41 33.83 C-29.45 31.18 -29.47 28.53 -29.48 25.88 C-29.5 25.06 -29.51 24.25 -29.53 23.42 C-29.53 15.44 -27.34 8.95 -21.85 3.04 C-15.7 -2.43 -7.4 -3.08 0 0 Z " fill="#F9FCFE" transform="translate(898.1875,361.4375)"/>
<path d="M0 0 C12.19 10.79 21.74 21.73 26.92 37.59 C27.28 38.59 27.63 39.59 28 40.63 C29.45 45.83 29.29 51.16 29.3 56.52 C29.32 57.57 29.35 58.62 29.37 59.69 C29.4 68.54 27.24 75.09 20.92 81.59 C11.14 89.22 1.84 90.76 -10.41 89.31 C-19.41 87.44 -25.8 81.82 -31.08 74.59 C-35.05 68.47 -38.35 62.08 -41.52 55.52 C-47.06 44.29 -55.01 31.62 -67.08 26.59 C-87.05 20 -109.81 20.13 -128.96 29.17 C-146.18 37.92 -156.01 53.71 -162.08 71.59 C-163.94 77.87 -165.55 84.22 -167.08 90.59 C-167.27 91.37 -167.47 92.15 -167.67 92.96 C-167.85 93.73 -168.03 94.5 -168.22 95.29 C-168.39 95.97 -168.55 96.66 -168.72 97.36 C-169.16 100.12 -169.1 102.79 -169.08 105.59 C-167.92 105.6 -166.76 105.61 -165.57 105.62 C-154.66 105.71 -143.76 105.82 -132.86 105.93 C-127.25 105.98 -121.64 106.03 -116.04 106.08 C-110.63 106.13 -105.22 106.18 -99.82 106.24 C-97.75 106.26 -95.68 106.28 -93.62 106.3 C-90.73 106.32 -87.84 106.35 -84.96 106.38 C-84.1 106.39 -83.24 106.39 -82.35 106.4 C-79.02 106.44 -76.26 106.52 -73.08 107.59 C-70.03 112.16 -70.34 116.22 -71.08 121.59 C-73.46 129.21 -76.32 136.86 -83.08 141.59 C-86.07 142.43 -88.93 142.4 -92.02 142.36 C-92.9 142.37 -93.78 142.38 -94.68 142.39 C-97.57 142.42 -100.46 142.41 -103.35 142.39 C-105.36 142.4 -107.37 142.42 -109.38 142.43 C-114.66 142.47 -119.93 142.47 -125.21 142.46 C-130.6 142.46 -135.99 142.49 -141.38 142.52 C-151.95 142.58 -162.51 142.59 -173.08 142.59 C-173.24 145.79 -173.41 149 -173.57 152.21 C-173.64 153.57 -173.64 153.57 -173.71 154.95 C-174.02 161.02 -174.24 167.07 -174.2 173.15 C-174.21 173.94 -174.21 174.73 -174.21 175.54 C-174.21 178.82 -174.12 181.46 -173.08 184.59 C-171.84 184.59 -170.61 184.59 -169.34 184.6 C-157.73 184.63 -146.12 184.69 -134.51 184.77 C-128.54 184.81 -122.57 184.84 -116.6 184.86 C-110.84 184.87 -105.09 184.91 -99.33 184.95 C-97.13 184.97 -94.93 184.98 -92.73 184.98 C-89.65 184.98 -86.58 185.01 -83.51 185.04 C-82.59 185.04 -81.68 185.03 -80.73 185.02 C-74.61 185.13 -74.61 185.13 -72.02 187.37 C-68.96 194.57 -71.75 201.39 -74.3 208.28 C-75.18 209.92 -75.18 209.92 -76.08 211.59 C-76.41 212.26 -76.74 212.93 -77.08 213.62 C-79.15 216.82 -81.14 219.11 -84.96 220.05 C-90.95 220.82 -96.99 220.65 -103.01 220.59 C-104.97 220.59 -106.94 220.6 -108.9 220.62 C-114.05 220.65 -119.2 220.63 -124.35 220.6 C-129.61 220.58 -134.88 220.6 -140.14 220.62 C-150.45 220.65 -160.76 220.64 -171.08 220.59 C-170.93 223.47 -170.78 226.36 -170.63 229.24 C-170.58 230.05 -170.54 230.86 -170.5 231.7 C-170.19 237.45 -169.61 243.02 -168.39 248.65 C-168.22 249.47 -168.04 250.3 -167.86 251.15 C-162.76 274.2 -152.99 294.82 -133.08 308.59 C-123.07 314.67 -112.6 317.15 -100.95 317.02 C-99.96 317.02 -98.96 317.01 -97.94 317 C-80.83 316.62 -65.01 312.13 -52.39 300.07 C-48.49 295.87 -45.25 291.34 -42.08 286.59 C-41.49 285.75 -40.91 284.9 -40.31 284.04 C-35.76 277.26 -32.39 270.08 -28.99 262.68 C-22.86 249.42 -16.21 236.63 -1.78 231.31 C7.18 228.9 16.96 230.5 25.14 234.73 C32.52 239.65 37.8 248.04 39.92 256.59 C40.23 260.13 40.25 263.65 40.23 267.21 C40.23 268.19 40.23 269.17 40.22 270.19 C40.05 280.95 37.71 289.98 32.92 299.59 C32.46 300.56 31.99 301.53 31.51 302.53 C16.93 330.58 -14.39 352.41 -43.74 362.22 C-47.82 363.49 -51.93 364.56 -56.08 365.59 C-57.16 365.88 -58.24 366.17 -59.35 366.48 C-93.8 375.33 -131.8 372.24 -164.08 357.59 C-165 357.18 -165.93 356.78 -166.89 356.36 C-200.5 340.76 -225.45 311.56 -238.1 277.16 C-244.78 258.36 -248.59 239.33 -251.08 219.59 C-252.18 219.61 -253.28 219.63 -254.41 219.65 C-258.5 219.72 -262.58 219.77 -266.67 219.81 C-268.43 219.83 -270.2 219.85 -271.97 219.89 C-274.51 219.94 -277.05 219.96 -279.59 219.98 C-280.78 220.01 -280.78 220.01 -281.98 220.04 C-285.54 220.04 -287.66 219.89 -290.59 217.8 C-292.51 214.95 -292.49 212.83 -291.95 209.49 C-290.78 205.58 -289.13 202 -287.33 198.34 C-286.99 197.65 -286.66 196.97 -286.31 196.26 C-283.85 191.48 -281.05 187.07 -276.08 184.59 C-274.26 184.5 -272.45 184.48 -270.63 184.49 C-269.02 184.49 -269.02 184.49 -267.37 184.5 C-266.24 184.51 -265.12 184.51 -263.95 184.52 C-262.82 184.53 -261.68 184.53 -260.51 184.54 C-257.7 184.55 -254.89 184.57 -252.08 184.59 C-252.05 178.62 -252.04 172.66 -252.02 166.7 C-252.02 164.67 -252.01 162.64 -252 160.61 C-251.99 157.69 -251.98 154.78 -251.98 151.87 C-251.98 150.96 -251.97 150.04 -251.96 149.1 C-251.96 146.93 -252.02 144.76 -252.08 142.59 C-254.09 140.57 -258.18 141.4 -260.95 141.38 C-262.57 141.35 -264.19 141.32 -265.82 141.29 C-268.39 141.25 -270.96 141.21 -273.53 141.18 C-276 141.16 -278.47 141.11 -280.95 141.06 C-281.71 141.06 -282.48 141.06 -283.28 141.05 C-288.55 140.93 -288.55 140.93 -291.07 139.29 C-292.59 136.72 -292.34 134.4 -291.91 131.52 C-290.8 127.61 -289.22 124.06 -287.45 120.4 C-286.98 119.38 -286.98 119.38 -286.49 118.35 C-283.99 113.43 -281.19 108.99 -276.08 106.59 C-271.24 105.88 -266.52 106.02 -261.64 106.21 C-259.68 106.25 -259.68 106.25 -257.69 106.29 C-254.48 106.36 -251.28 106.46 -248.08 106.59 C-247.95 105.75 -247.83 104.91 -247.7 104.05 C-246.73 97.58 -245.7 91.16 -244.27 84.77 C-244.1 84.02 -243.93 83.26 -243.75 82.49 C-237.57 55.76 -226.73 30.71 -209.08 9.59 C-208.56 8.92 -208.04 8.26 -207.51 7.57 C-187.71 -16.9 -153.51 -28.65 -123.27 -31.91 C-80.76 -35.77 -33.81 -27.76 0 0 Z " fill="#FAFDFF" transform="translate(490.078125,463.4140625)"/>
<path d="M0 0 C17.03 2.28 34.91 11.65 45.75 25.19 C50.27 32.01 53.57 40.84 54 49 C54.06 49.98 54.12 50.96 54.19 51.97 C54.72 66.8 51.41 80.36 41.62 91.77 C32.06 101.93 18.1 112.37 3.68 113.19 C1 113 1 113 0 112 C-0.1 110.55 -0.12 109.09 -0.12 107.63 C-0.12 106.21 -0.12 106.21 -0.12 104.77 C-0.12 103.72 -0.12 102.68 -0.11 101.61 C-0.11 100.51 -0.11 99.42 -0.11 98.29 C-0.11 94.66 -0.11 91.03 -0.1 87.4 C-0.1 84.89 -0.09 82.38 -0.09 79.87 C-0.09 73.93 -0.08 67.99 -0.07 62.05 C-0.06 54.62 -0.05 47.19 -0.05 39.76 C-0.04 26.51 -0.02 13.25 0 0 Z " fill="#181a1b" transform="translate(909,649)"/>
<path d="M0 0 C0 31.68 0 63.36 0 96 C-14.22 93.63 -28.57 84.15 -37.67 73.04 C-44.46 62.64 -44.25 48.09 -41.88 36.38 C-38.75 24.3 -31.92 13.47 -21.25 6.75 C-6.22 -1.56 -6.22 -1.56 0 0 Z " fill="#181a1b" transform="translate(869,470)"/>
</svg>
